# xmcd CD database file
#
# Track frame offsets:
#	187
#	23587
#	55320
#
# Disc length: 1048 seconds
#
# Revision: 0
# Processed by: cddbd v1.5.1PL0 Copyright (c) Steve Scherf et al.
# Submitted via: CDex 1.51
#
DISCID=1b041603
DTITLE=CUTEMEN - LOVE DEEP INSIDE
DYEAR=1991
DGENRE=Techno
TTITLE0=LOVE DEEP INSIDE (CUTEMEN-CUTEMEN-CMJK)
TTITLE1=DUB DEEP INSIDE (CUTEMEN-CUTEMEN-CMJK)
TTITLE2=LOVE DEEP INSIDE-Back Trax (CUTEMEN-CMJK)
EXTD=YEAR: 1991
EXTT0=
EXTT1=
EXTT2=
PLAYORDER=
